<mxfile host="app.diagrams.net" agent="Mozilla/5.0 (X11; Ubuntu; Linux x86_64; rv:135.0) Gecko/20100101 Firefox/135.0" version="26.0.12">
  <diagram name="Page-1" id="2YBvvXClWsGukQMizWep">
    <mxGraphModel dx="815" dy="452" grid="1" gridSize="10" guides="1" tooltips="1" connect="1" arrows="1" fold="1" page="1" pageScale="1" pageWidth="850" pageHeight="1100" math="0" shadow="0">
      <root>
        <mxCell id="0" />
        <mxCell id="1" parent="0" />
        <mxCell id="RxJPkcNcJiwlVcDlyt5Y-73" value="" style="rhombus;whiteSpace=wrap;html=1;" vertex="1" parent="1">
          <mxGeometry x="180" y="250" width="40" height="80" as="geometry" />
        </mxCell>
        <mxCell id="RxJPkcNcJiwlVcDlyt5Y-74" value="Next in queue" style="text;html=1;align=center;verticalAlign=middle;resizable=0;points=[];autosize=1;strokeColor=none;fillColor=none;" vertex="1" parent="1">
          <mxGeometry x="150" y="220" width="100" height="30" as="geometry" />
        </mxCell>
        <mxCell id="RxJPkcNcJiwlVcDlyt5Y-99" style="edgeStyle=orthogonalEdgeStyle;rounded=0;orthogonalLoop=1;jettySize=auto;html=1;" edge="1" parent="1" source="RxJPkcNcJiwlVcDlyt5Y-79">
          <mxGeometry relative="1" as="geometry">
            <mxPoint x="540" y="300" as="targetPoint" />
          </mxGeometry>
        </mxCell>
        <mxCell id="RxJPkcNcJiwlVcDlyt5Y-79" value="Send to top of queue" style="rounded=1;whiteSpace=wrap;html=1;" vertex="1" parent="1">
          <mxGeometry x="360" y="290" width="140" height="20" as="geometry" />
        </mxCell>
        <mxCell id="RxJPkcNcJiwlVcDlyt5Y-91" value="" style="triangle;whiteSpace=wrap;html=1;" vertex="1" parent="1">
          <mxGeometry x="540" y="265" width="60" height="50" as="geometry" />
        </mxCell>
        <mxCell id="RxJPkcNcJiwlVcDlyt5Y-92" value="" style="edgeStyle=none;orthogonalLoop=1;jettySize=auto;html=1;rounded=0;entryX=0;entryY=0.5;entryDx=0;entryDy=0;" edge="1" parent="1" target="RxJPkcNcJiwlVcDlyt5Y-79">
          <mxGeometry width="100" relative="1" as="geometry">
            <mxPoint x="220" y="290" as="sourcePoint" />
            <mxPoint x="320" y="290" as="targetPoint" />
            <Array as="points">
              <mxPoint x="250" y="300" />
            </Array>
          </mxGeometry>
        </mxCell>
        <mxCell id="RxJPkcNcJiwlVcDlyt5Y-95" value="" style="edgeStyle=none;orthogonalLoop=1;jettySize=auto;html=1;rounded=0;" edge="1" parent="1">
          <mxGeometry width="100" relative="1" as="geometry">
            <mxPoint x="220" y="290" as="sourcePoint" />
            <mxPoint x="540" y="281" as="targetPoint" />
            <Array as="points">
              <mxPoint x="250" y="280.57" />
            </Array>
          </mxGeometry>
        </mxCell>
        <mxCell id="RxJPkcNcJiwlVcDlyt5Y-96" value="Hitchhikers" style="text;html=1;align=center;verticalAlign=middle;resizable=0;points=[];autosize=1;strokeColor=none;fillColor=none;" vertex="1" parent="1">
          <mxGeometry x="270" y="300" width="80" height="30" as="geometry" />
        </mxCell>
        <mxCell id="RxJPkcNcJiwlVcDlyt5Y-98" value="No hitchhikers" style="text;html=1;align=center;verticalAlign=middle;resizable=0;points=[];autosize=1;strokeColor=none;fillColor=none;" vertex="1" parent="1">
          <mxGeometry x="325" y="250" width="100" height="30" as="geometry" />
        </mxCell>
      </root>
    </mxGraphModel>
  </diagram>
</mxfile>
